<?xml version="1.0" encoding="utf-8"?>
<!-- Generator: Adobe Illustrator 23.1.0, SVG Export Plug-In . SVG Version: 6.00 Build 0)  -->
<svg version="1.1" id="Layer_1" xmlns="http://www.w3.org/2000/svg" xmlns:xlink="http://www.w3.org/1999/xlink" x="0px" y="0px"
	 viewBox="0 0 291.4 291.4" style="enable-background:new 0 0 291.4 291.4;" xml:space="preserve">
<style type="text/css">
	.st0{fill:#00BBFF;}
</style>
<path class="st0" d="M283,176.6c2.1-9.5,3.2-19.3,3.2-29.4c0-75.7-62.2-137-138.9-137c-8.1,0-16,0.7-23.8,2C111.1,4.5,96.4,0,80.6,0
	C36.1,0,0,35.6,0,79.5c0,14.7,4.1,28.4,11.1,40.2c-1.8,8.9-2.8,18.1-2.8,27.5C8.3,222.9,70.5,282,147.2,282c8.7,0,17.2-0.8,25.4-2.3
	c11.4,6,24.3,11.7,38.1,11.7c44.5,0,80.6-35.6,80.6-79.5C291.3,199.2,288.3,187.2,283,176.6z M210.6,203.1
	c-5.4,7.6-13.2,13.6-23.5,17.9c-10.3,4.3-22.6,6.5-36.7,6.5c-17,0-31-2.9-42-8.9c-7.8-4.2-14.2-9.9-19.1-17
	c-4.9-7.1-7.3-14-7.3-20.7c0-3.9,1.5-7.2,4.4-10c2.9-2.8,6.7-4.2,11.2-4.2c3.7,0,6.8,1.1,9.3,3.2c2.5,2.2,4.7,5.4,6.5,9.6
	c2.2,5.1,4.6,9.3,7.1,12.6c2.5,3.4,6.1,6.2,10.7,8.4c4.6,2.2,10.7,3.3,18.2,3.3c10.3,0,18.7-2.2,25.2-6.6c6.4-4.4,9.7-10,9.7-16.6
	c0-5.2-1.7-9.5-5.2-12.8c-3.5-3.3-8-5.8-13.5-7.5c-5.5-1.7-12.9-3.6-22.1-5.5c-12.4-2.6-22.7-5.8-31-9.3c-8.3-3.6-15-8.4-19.8-14.6
	c-4.9-6.2-7.3-13.8-7.3-23c0-8.7,2.6-16.5,7.7-23.2c5.2-6.8,12.6-12,22.4-15.6c9.8-3.6,21.3-5.5,34.5-5.5c10.6,0,19.7,1.2,27.4,3.6
	c7.7,2.4,14.1,5.6,19.2,9.6c5.1,4,8.8,8.2,11.2,12.6c2.3,4.4,3.5,8.7,3.5,12.8c0,3.8-1.5,7.3-4.4,10.3c-2.9,3.1-6.6,4.6-11,4.6
	c-4,0-7-0.9-9.1-2.8c-2.1-1.8-4.3-4.8-6.7-9c-3.1-6-6.9-10.6-11.3-14c-4.4-3.3-11.4-5-21.1-5c-9,0-16.3,1.8-21.8,5.5
	c-5.5,3.6-8.3,8-8.3,13.1c0,3.2,1,5.9,2.8,8.2c1.9,2.3,4.5,4.3,7.8,5.9c3.3,1.7,6.6,3,10,3.9c3.4,0.9,8.9,2.3,16.7,4.1
	c9.7,2.1,18.5,4.4,26.3,6.9c7.9,2.5,14.6,5.6,20.1,9.2c5.5,3.6,9.8,8.2,12.9,13.7c3.1,5.5,4.6,12.2,4.6,20.2
	C218.6,186.9,215.9,195.5,210.6,203.1z"/>
</svg>
